<?xml version="1.0"?>
<svg width="109.00000000000001" height="53.00000000000001" xmlns="http://www.w3.org/2000/svg" xmlns:svg="http://www.w3.org/2000/svg">
 <g>
  <title>Layer 1</title>
  <g id="Forma_1_1_" stroke="null">
   <g id="Forma_1" stroke="null">
    <g id="svg_1" stroke="null">
     <path fill="#cacaca" d="m48.207887,26.982l-10.161,10.158c-2.714,2.714 -6.322,4.209 -10.161,4.209s-7.446,-1.495 -10.161,-4.209c-2.713,-2.713 -4.208,-6.32 -4.208,-10.158s1.495,-7.445 4.208,-10.158c2.714,-2.713 6.322,-4.208 10.16,-4.208c3.838,0 7.446,1.495 10.161,4.208l4.679,-4.678c-3.963,-3.963 -9.233,-6.146 -14.839,-6.146s-10.876,2.183 -14.839,6.146c-3.964,3.962 -6.147,9.231 -6.147,14.836s2.183,10.874 6.147,14.836c3.963,3.963 9.234,6.146 14.839,6.146s10.876,-2.183 14.84,-6.145l10.16,-10.159l0,-9.356l-4.678,4.678z" id="svg_2" stroke="null"/>
    </g>
   </g>
  </g>
  <g id="Forma_1_copy_1_">
   <g id="Forma_1_copy">
    <g id="svg_3">
     <path fill="#4FE158" d="m92.826,12.146c-3.964,-3.963 -9.234,-6.146 -14.84,-6.146s-10.876,2.183 -14.84,6.146l-10.16,10.158l-1.609,10.965l6.289,-6.287l10.16,-10.158c2.714,-2.713 6.321,-4.208 10.16,-4.208s7.446,1.495 10.16,4.208c2.715,2.713 4.21,6.32 4.21,10.158s-1.495,7.445 -4.21,10.158c-2.714,2.713 -6.321,4.209 -10.16,4.209s-7.446,-1.496 -10.16,-4.209l-1.859,-2.088l-4.358,4.304l1.538,2.463c3.964,3.963 9.234,6.146 14.84,6.146s10.876,-2.183 14.84,-6.146s6.146,-9.231 6.146,-14.836s-2.183,-10.875 -6.147,-14.837z" id="svg_4"/>
    </g>
   </g>
  </g>
  <g id="Polygon_1_copy_1_" transform="rotate(4.267304420471191 41.92636871337885,18.02949905395506) ">
   <g id="Polygon_1_copy">
    <g id="svg_5">
     <path fill="#cacaca" d="m39.960867,10.492l-4.262,5.192c0,0 1.798,9.883 1.916,9.684c0.107,-0.182 10.539,-12.912 10.539,-12.912l-8.193,-1.964z" id="svg_6"/>
    </g>
   </g>
  </g>
  <g id="Polygon_1_copy_2_1_">
   <g id="Polygon_1_copy_2">
    <g id="svg_7">
     <path fill="#4FE158" d="m65.441,27.52c-0.107,0.183 -10.539,12.912 -10.539,12.912l8.622,1.076l3.833,-4.304c0,0 -1.798,-9.884 -1.916,-9.684z" id="svg_8"/>
    </g>
   </g>
  </g>
  <g id="Shape_1_1_" transform="rotate(-8.201154708862305 43.25688934326175,21.30709648132327) ">
   <g id="Shape_1">
    <g id="svg_9">
     <polygon fill="#cacaca" points="41.81988525390625,18.617095947265625 40.86188888549805,19.693096160888672 44.693885803222656,23.99709701538086 45.651885986328125,22.921096801757812 " id="svg_10"/>
    </g>
   </g>
  </g>
  <g transform="rotate(-8.201154708862305 46.860954284667976,17.402692794799822) " id="svg_13">
   <g id="svg_14">
    <g id="svg_15">
     <polygon fill="#cacaca" points="45.4239501953125,14.712692260742188 44.4659538269043,15.788692474365234 48.297950744628906,20.092693328857422 49.255950927734375,19.016693115234375 " id="svg_16"/>
    </g>
   </g>
  </g>
 </g>
</svg>