<?xml version="1.0" encoding="utf-8"?>
<!-- Generator: Adobe Illustrator 16.0.0, SVG Export Plug-In . SVG Version: 6.00 Build 0)  -->
<!DOCTYPE svg PUBLIC "-//W3C//DTD SVG 1.1//EN" "http://www.w3.org/Graphics/SVG/1.1/DTD/svg11.dtd">
<svg version="1.1" xmlns="http://www.w3.org/2000/svg" xmlns:xlink="http://www.w3.org/1999/xlink" x="0px" y="0px" width="109px"
	 height="53px" viewBox="0 0 109 53" enable-background="new 0 0 109 53" xml:space="preserve">
<g id="Forma_1_1_" enable-background="new    ">
	<g id="Forma_1">
		<g>
			<path d="M50.116,25.5l-10.605,9.44c-2.833,2.522-6.599,3.911-10.605,3.911S21.133,37.463,18.3,34.94
				c-2.833-2.521-4.393-5.874-4.393-9.44s1.56-6.919,4.393-9.44c2.833-2.521,6.599-3.911,10.605-3.911
				c4.006,0,7.772,1.39,10.605,3.911l4.884-4.348C40.257,8.028,34.756,6,28.905,6s-11.352,2.028-15.489,5.712
				C9.278,15.395,7,20.291,7,25.5s2.278,10.105,6.416,13.788C17.553,42.972,23.054,45,28.905,45s11.352-2.028,15.49-5.711L55,29.848
				v-8.695L50.116,25.5z"/>
		</g>
	</g>
</g>
<g id="Forma_1_copy_1_" enable-background="new    ">
	<g id="Forma_1_copy">
		<g>
			<path fill="#4FE158" d="M96.584,11.712C92.447,8.028,86.945,6,81.095,6s-11.353,2.028-15.489,5.712L55,21.152l-1.68,10.19
				l6.564-5.843l10.604-9.44c2.833-2.521,6.599-3.911,10.605-3.911s7.772,1.39,10.605,3.911s4.394,5.874,4.394,9.44
				s-1.561,6.919-4.394,9.44s-6.599,3.911-10.605,3.911s-7.772-1.39-10.605-3.911L68.549,33L64,37l1.605,2.288
				C69.742,42.972,75.244,45,81.095,45s11.353-2.028,15.489-5.712C100.722,35.605,103,30.709,103,25.5S100.722,15.395,96.584,11.712
				z"/>
		</g>
	</g>
</g>
<g id="Polygon_1_copy_1_" enable-background="new    ">
	<g id="Polygon_1_copy">
		<g>
			<path d="M42.449,10.174L38,15c0,0,1.877,9.186,2,9c0.112-0.169,11-12,11-12L42.449,10.174z"/>
		</g>
	</g>
</g>
<g id="Polygon_1_copy_2_1_" enable-background="new    ">
	<g id="Polygon_1_copy_2">
		<g>
			<path fill="#4FE158" d="M68,26c-0.111,0.169-11,12-11,12l9,1l4-4C70,35,68.123,25.814,68,26z"/>
		</g>
	</g>
</g>
<g id="Shape_1_1_" enable-background="new    ">
	<g id="Shape_1">
		<g>
			<rect x="44.242" y="18.142" transform="matrix(0.7071 -0.7071 0.7071 0.7071 -1.6629 37.9259)" width="1.414" height="5.657"/>
		</g>
	</g>
</g>
<g id="Shape_1_copy_1_" enable-background="new    ">
	<g id="Shape_1_copy">
		<g>
			<rect x="47.793" y="14.672" transform="matrix(0.7071 -0.7071 0.7071 0.7071 1.831 39.4203)" width="1.414" height="5.657"/>
		</g>
	</g>
</g>
</svg>
